<svg xmlns="http://www.w3.org/2000/svg" xmlns:xlink="http://www.w3.org/1999/xlink" viewBox="0 0 500 500"><defs><style>.cls-1{isolation:isolate;}.cls-2{fill:#21262b;}.cls-3{mix-blend-mode:color-dodge;opacity:0.22;fill:url(#Dégradé_sans_nom_3);}.cls-4{fill:#fff;}.cls-5{fill:#f5f4f9;}.cls-6,.cls-7,.cls-8,.cls-9{fill:#23b2a4;}.cls-7{mix-blend-mode:overlay;}.cls-8{opacity:0.42;}.cls-9{opacity:0.32;}</style><radialGradient id="Dégradé_sans_nom_3" cx="250" cy="214.74" r="174.89" gradientUnits="userSpaceOnUse"><stop offset="0" stop-color="#23b2a4"/><stop offset="0.53" stop-color="#216563" stop-opacity="0.46"/><stop offset="1" stop-color="#20242b" stop-opacity="0"/></radialGradient></defs><g class="cls-1"><g id="BACKGROUND"><rect class="cls-2" width="500" height="500"/><rect class="cls-3" x="74.52" y="39.26" width="350.96" height="350.96" rx="175.48"/></g><g id="OBJECTS"><path class="cls-4" d="M145.41,327.44a2.7,2.7,0,0,0-1,2.19,2.48,2.48,0,0,0,1.23,2.16,22.74,22.74,0,0,0,5.66,1.89,15.9,15.9,0,0,1,6.88,3.28c1.64,1.45,2.45,3.58,2.45,6.37a8.38,8.38,0,0,1-3.14,6.79,12.5,12.5,0,0,1-8.26,2.61,19.15,19.15,0,0,1-13.33-5.48l4.15-5.08q5,4.41,9.31,4.41a4.89,4.89,0,0,0,3-.82,2.68,2.68,0,0,0,1.09-2.23,2.6,2.6,0,0,0-1.16-2.23,15.21,15.21,0,0,0-4.59-1.67q-5.43-1.29-7.95-3.36t-2.52-6.51a8.07,8.07,0,0,1,3.19-6.84,12.82,12.82,0,0,1,8-2.4,19.21,19.21,0,0,1,6.24,1.06,16.88,16.88,0,0,1,5.43,3l-3.52,5.08a13.68,13.68,0,0,0-8.37-3.07A4.17,4.17,0,0,0,145.41,327.44Z"/><path class="cls-4" d="M182.14,327.24v25.13h-6.95V327.24h-8.82v-6H191v6Z"/><path class="cls-4" d="M207,344.33a6.13,6.13,0,0,0,9.34,0,9.27,9.27,0,0,0,1.71-5.9v-17.2h7v17.42q0,6.78-3.74,10.4A14.42,14.42,0,0,1,202,349q-3.76-3.64-3.77-10.38V321.23h6.95v17.2A9.15,9.15,0,0,0,207,344.33Z"/><path class="cls-4" d="M258.65,325.31q4.46,4.06,4.46,11.34t-4.35,11.49c-2.9,2.82-7.31,4.23-13.26,4.23H234.85V321.23h11Q254.2,321.23,258.65,325.31Zm-5.1,18.51c1.7-1.61,2.56-3.94,2.56-7s-.86-5.41-2.56-7.06-4.33-2.47-7.87-2.47h-3.87v18.94h4.41C249.4,346.23,251.84,345.42,253.55,343.82Z"/><path class="cls-4" d="M294.25,321.23v6.19H278.74v6.42h13.95v5.92H278.74v6.47h16v6.14H271.79V321.23Z"/><path class="cls-4" d="M325.4,321.23h7v31.14h-7l-14.84-19.51v19.51h-6.95V321.23h6.5l15.29,20Z"/><path class="cls-4" d="M355.87,327.24v25.13h-6.95V327.24H340.1v-6h24.6v6Z"/><path class="cls-5" d="M232.66,367.38l-3.67,7v4.25h-1.47V374.4l-3.69-7h1.63l2.79,5.71,2.78-5.71Z"/><path class="cls-5" d="M246,378.65h-1.47l-5.92-9v9h-1.47V367.37h1.47l5.92,9v-9H246Z"/><path class="cls-5" d="M253.65,378a5.38,5.38,0,0,1-2.05-2,6.26,6.26,0,0,1,0-5.94,5.45,5.45,0,0,1,2.05-2.05,5.94,5.94,0,0,1,5.74,0,5.36,5.36,0,0,1,2,2.05,6,6,0,0,1,.74,3,6,6,0,0,1-.74,3,5.4,5.4,0,0,1-2,2,5.94,5.94,0,0,1-5.74,0Zm5-1.09a3.87,3.87,0,0,0,1.48-1.57,5.36,5.36,0,0,0,0-4.73,4,4,0,0,0-1.47-1.56,4.23,4.23,0,0,0-2.14-.55,4.17,4.17,0,0,0-2.13.55,3.91,3.91,0,0,0-1.48,1.56,5.45,5.45,0,0,0,0,4.73,3.87,3.87,0,0,0,1.48,1.57,4.4,4.4,0,0,0,4.26,0Z"/><path class="cls-5" d="M276.34,367.38l-4.26,11.27h-1.7l-4.25-11.27h1.57l3.54,9.72,3.54-9.72Z"/><path class="cls-6" d="M201.45,117.86h-28l57.69,112.8-28.85,58.92h34a13.32,13.32,0,0,0,11.95-7.46l20.32-41.52a22.08,22.08,0,0,0-.17-19.8l-46.18-90.29A23.24,23.24,0,0,0,201.45,117.86Z"/><path class="cls-6" d="M222.13,130.51c23,45,24.8,67.8,9,100.15l-28.85,58.92h34a13.32,13.32,0,0,0,11.95-7.46l20.32-41.52a22.08,22.08,0,0,0-.17-19.8Z"/><path class="cls-7" d="M222.13,130.51c23,45,24.8,67.8,9,100.15l-28.85,58.92h34a13.32,13.32,0,0,0,11.95-7.46l20.32-41.52a22.08,22.08,0,0,0-.17-19.8Z"/><path class="cls-8" d="M268.31,220.8l-13-25.48c.89,14.6-2.64,27.9-10.21,43.38l-24.91,50.88h16.05a13.32,13.32,0,0,0,11.95-7.46l20.32-41.52A22.08,22.08,0,0,0,268.31,220.8Z"/><path class="cls-6" d="M280.69,123.21l-20.33,41.52a22.13,22.13,0,0,0,.18,19.81l16.55,32.35L326.6,115.76h-34A13.3,13.3,0,0,0,280.69,123.21Z"/><path class="cls-9" d="M310.78,115.76H292.64a13.3,13.3,0,0,0-11.95,7.45l-20.33,41.52a22.13,22.13,0,0,0,.18,19.81L269,201.09Z"/></g></g></svg>