<svg xmlns="http://www.w3.org/2000/svg" xmlns:xlink="http://www.w3.org/1999/xlink" viewBox="0 0 500 255.87"><defs><style>.cls-1{isolation:isolate;}.cls-2{fill:#21262b;}.cls-3{fill:#fff;}.cls-4{fill:#f5f4f9;}.cls-5{mix-blend-mode:color-dodge;opacity:0.22;fill:url(#Dégradé_sans_nom_3);}.cls-6,.cls-7,.cls-8,.cls-9{fill:#23b2a4;}.cls-7{mix-blend-mode:overlay;}.cls-8{opacity:0.42;}.cls-9{opacity:0.32;}</style><radialGradient id="Dégradé_sans_nom_3" cx="103.37" cy="127.1" r="174.89" gradientUnits="userSpaceOnUse"><stop offset="0" stop-color="#23b2a4"/><stop offset="0.53" stop-color="#216563" stop-opacity="0.46"/><stop offset="1" stop-color="#20242b" stop-opacity="0"/></radialGradient></defs><g class="cls-1"><g id="OBJECTS"><rect class="cls-2" width="500" height="255.87"/><path class="cls-3" d="M195.3,103.34a2.68,2.68,0,0,0-1,2.18,2.45,2.45,0,0,0,1.23,2.16,22.31,22.31,0,0,0,5.66,1.89,15.9,15.9,0,0,1,6.88,3.28c1.64,1.45,2.45,3.58,2.45,6.37a8.41,8.41,0,0,1-3.14,6.8,12.55,12.55,0,0,1-8.26,2.6,19.1,19.1,0,0,1-13.33-5.48l4.15-5.08q5,4.41,9.31,4.41a4.89,4.89,0,0,0,3-.82,2.66,2.66,0,0,0,1.09-2.23,2.61,2.61,0,0,0-1.16-2.23,15.21,15.21,0,0,0-4.59-1.67c-3.62-.86-6.28-2-8-3.36s-2.52-3.55-2.52-6.51a8.07,8.07,0,0,1,3.19-6.84,12.82,12.82,0,0,1,7.95-2.4,19,19,0,0,1,6.24,1.07,16.52,16.52,0,0,1,5.43,3l-3.52,5.08a13.7,13.7,0,0,0-8.37-3.08A4.17,4.17,0,0,0,195.3,103.34Z"/><path class="cls-3" d="M232,103.13v25.14h-6.95V103.13h-8.82v-6h24.6v6Z"/><path class="cls-3" d="M256.85,120.22a6.13,6.13,0,0,0,9.34,0,9.27,9.27,0,0,0,1.71-5.9V97.12h7v17.42q0,6.78-3.74,10.41a14.44,14.44,0,0,1-19.18,0q-3.77-3.65-3.77-10.38V97.12h7v17.2A9.15,9.15,0,0,0,256.85,120.22Z"/><path class="cls-3" d="M308.54,101.2c3,2.71,4.46,6.5,4.46,11.34s-1.45,8.67-4.35,11.49-7.31,4.24-13.26,4.24H284.74V97.12h11Q304.09,97.12,308.54,101.2Zm-5.1,18.51c1.7-1.6,2.56-3.93,2.56-7s-.86-5.41-2.56-7.06-4.33-2.47-7.87-2.47H291.7v18.94h4.41C299.29,122.12,301.73,121.31,303.44,119.71Z"/><path class="cls-3" d="M344.14,97.12v6.19H328.63v6.42h13.95v5.93H328.63v6.46h16v6.15H321.68V97.12Z"/><path class="cls-3" d="M375.29,97.12h6.95v31.15h-6.95l-14.84-19.52v19.52H353.5V97.12H360l15.29,20Z"/><path class="cls-3" d="M405.76,103.13v25.14h-6.95V103.13H390v-6h24.6v6Z"/><path class="cls-4" d="M282.55,143.28l-3.67,7v4.26h-1.47v-4.26l-3.69-7h1.63l2.79,5.7,2.78-5.7Z"/><path class="cls-4" d="M295.87,154.55H294.4l-5.92-9v9H287V143.26h1.47l5.92,9v-9h1.47Z"/><path class="cls-4" d="M303.54,153.92a5.38,5.38,0,0,1-2.05-2,5.9,5.9,0,0,1-.75-3,5.84,5.84,0,0,1,.75-3,5.41,5.41,0,0,1,2.05-2.06,6,6,0,0,1,5.74,0,5.36,5.36,0,0,1,2,2.05,6,6,0,0,1,.74,3,6,6,0,0,1-.74,3,5.4,5.4,0,0,1-2,2,5.94,5.94,0,0,1-5.74,0Zm5-1.09a3.81,3.81,0,0,0,1.48-1.57,5.36,5.36,0,0,0,0-4.73,4,4,0,0,0-1.47-1.56,4.23,4.23,0,0,0-2.14-.55,4.17,4.17,0,0,0-2.13.55,3.91,3.91,0,0,0-1.48,1.56,5.45,5.45,0,0,0,0,4.73,3.81,3.81,0,0,0,1.48,1.57,4.4,4.4,0,0,0,4.26,0Z"/><path class="cls-4" d="M326.23,143.28,322,154.55h-1.7L316,143.28h1.57l3.54,9.71,3.54-9.71Z"/><rect class="cls-5" x="-72.11" y="-48.37" width="350.96" height="350.96" rx="175.48"/><path class="cls-6" d="M54.82,42.3h-28L84.46,155.09,55.61,214h34a13.31,13.31,0,0,0,12-7.45L121.85,165a22.13,22.13,0,0,0-.17-19.81L75.5,55A23.24,23.24,0,0,0,54.82,42.3Z"/><path class="cls-6" d="M75.5,55c23,45,24.8,67.8,9,100.14L55.61,214h34a13.31,13.31,0,0,0,12-7.45L121.85,165a22.13,22.13,0,0,0-.17-19.81Z"/><path class="cls-7" d="M75.5,55c23,45,24.8,67.8,9,100.14L55.61,214h34a13.31,13.31,0,0,0,12-7.45L121.85,165a22.13,22.13,0,0,0-.17-19.81Z"/><path class="cls-8" d="M121.68,145.23l-13-25.47c.89,14.59-2.64,27.9-10.22,43.38L73.53,214h16a13.31,13.31,0,0,0,12-7.45L121.85,165A22.13,22.13,0,0,0,121.68,145.23Z"/><path class="cls-6" d="M134.06,47.65,113.73,89.17a22.13,22.13,0,0,0,.18,19.81l16.55,32.35L180,40.19H146A13.31,13.31,0,0,0,134.06,47.65Z"/><path class="cls-9" d="M164.15,40.19H146a13.31,13.31,0,0,0-11.95,7.46L113.73,89.17a22.13,22.13,0,0,0,.18,19.81l8.46,16.54Z"/></g></g></svg>