<svg xmlns="http://www.w3.org/2000/svg" xmlns:xlink="http://www.w3.org/1999/xlink" viewBox="0 0 500 255.87"><defs><style>.cls-1{isolation:isolate;}.cls-2{fill:#21262b;}.cls-3{font-size:44.56px;fill:#fff;font-family:Montserrat-Bold, Montserrat;font-weight:700;letter-spacing:0.05em;}.cls-4{letter-spacing:0.06em;}.cls-5{font-size:16.17px;fill:#f5f4f9;font-family:Poppins-Regular, Poppins;letter-spacing:0.18em;}.cls-6{mix-blend-mode:color-dodge;opacity:0.22;fill:url(#Dégradé_sans_nom_3);}.cls-10,.cls-7,.cls-8,.cls-9{fill:#23b2a4;}.cls-8{mix-blend-mode:overlay;}.cls-9{opacity:0.42;}.cls-10{opacity:0.32;}</style><radialGradient id="Dégradé_sans_nom_3" cx="103.37" cy="127.1" r="174.89" gradientUnits="userSpaceOnUse"><stop offset="0" stop-color="#23b2a4"/><stop offset="0.53" stop-color="#216563" stop-opacity="0.46"/><stop offset="1" stop-color="#20242b" stop-opacity="0"/></radialGradient></defs><g class="cls-1"><g id="OBJECTS"><rect class="cls-2" width="500" height="255.87"/><text class="cls-3" transform="translate(184.18 128.27)">S<tspan class="cls-4" x="30.83" y="0">TUDENT</tspan></text><text class="cls-5" transform="translate(273.41 154.55)">YNOV</text><rect class="cls-6" x="-72.11" y="-48.37" width="350.96" height="350.96" rx="175.48"/><path class="cls-7" d="M54.82,42.3h-28L84.46,155.09,55.61,214h34a13.31,13.31,0,0,0,12-7.45L121.85,165a22.13,22.13,0,0,0-.17-19.81L75.5,55A23.24,23.24,0,0,0,54.82,42.3Z"/><path class="cls-7" d="M75.5,55c23,45,24.8,67.8,9,100.14L55.61,214h34a13.31,13.31,0,0,0,12-7.45L121.85,165a22.13,22.13,0,0,0-.17-19.81Z"/><path class="cls-8" d="M75.5,55c23,45,24.8,67.8,9,100.14L55.61,214h34a13.31,13.31,0,0,0,12-7.45L121.85,165a22.13,22.13,0,0,0-.17-19.81Z"/><path class="cls-9" d="M121.68,145.23l-13-25.47c.89,14.59-2.64,27.9-10.22,43.38L73.53,214h16a13.31,13.31,0,0,0,12-7.45L121.85,165A22.13,22.13,0,0,0,121.68,145.23Z"/><path class="cls-7" d="M134.06,47.65,113.73,89.17a22.13,22.13,0,0,0,.18,19.81l16.55,32.35L180,40.19H146A13.31,13.31,0,0,0,134.06,47.65Z"/><path class="cls-10" d="M164.15,40.19H146a13.31,13.31,0,0,0-11.95,7.46L113.73,89.17a22.13,22.13,0,0,0,.18,19.81l8.46,16.54Z"/></g></g></svg>