<svg xmlns="http://www.w3.org/2000/svg" xmlns:xlink="http://www.w3.org/1999/xlink" viewBox="0 0 500 500"><defs><style>.cls-1{isolation:isolate;}.cls-2{fill:#21262b;}.cls-3{mix-blend-mode:color-dodge;opacity:0.22;fill:url(#Dégradé_sans_nom_3);}.cls-4{font-size:44.56px;fill:#fff;font-family:Montserrat-Bold, Montserrat;font-weight:700;letter-spacing:0.05em;}.cls-5{letter-spacing:0.06em;}.cls-6{font-size:16.17px;fill:#f5f4f9;font-family:Poppins-Regular, Poppins;letter-spacing:0.18em;}.cls-10,.cls-7,.cls-8,.cls-9{fill:#23b2a4;}.cls-8{mix-blend-mode:overlay;}.cls-9{opacity:0.42;}.cls-10{opacity:0.32;}</style><radialGradient id="Dégradé_sans_nom_3" cx="250" cy="214.74" r="174.89" gradientUnits="userSpaceOnUse"><stop offset="0" stop-color="#23b2a4"/><stop offset="0.53" stop-color="#216563" stop-opacity="0.46"/><stop offset="1" stop-color="#20242b" stop-opacity="0"/></radialGradient></defs><g class="cls-1"><g id="BACKGROUND"><rect class="cls-2" width="500" height="500"/><rect class="cls-3" x="74.52" y="39.26" width="350.96" height="350.96" rx="175.48"/></g><g id="OBJECTS"><text class="cls-4" transform="translate(134.29 352.37)">S<tspan class="cls-5" x="30.83" y="0">TUDENT</tspan></text><text class="cls-6" transform="translate(223.52 378.65)">YNOV</text><path class="cls-7" d="M201.45,117.86h-28l57.69,112.8-28.85,58.92h34a13.32,13.32,0,0,0,11.95-7.46l20.32-41.52a22.08,22.08,0,0,0-.17-19.8l-46.18-90.29A23.24,23.24,0,0,0,201.45,117.86Z"/><path class="cls-7" d="M222.13,130.51c23,45,24.8,67.8,9,100.15l-28.85,58.92h34a13.32,13.32,0,0,0,11.95-7.46l20.32-41.52a22.08,22.08,0,0,0-.17-19.8Z"/><path class="cls-8" d="M222.13,130.51c23,45,24.8,67.8,9,100.15l-28.85,58.92h34a13.32,13.32,0,0,0,11.95-7.46l20.32-41.52a22.08,22.08,0,0,0-.17-19.8Z"/><path class="cls-9" d="M268.31,220.8l-13-25.48c.89,14.6-2.64,27.9-10.21,43.38l-24.91,50.88h16.05a13.32,13.32,0,0,0,11.95-7.46l20.32-41.52A22.08,22.08,0,0,0,268.31,220.8Z"/><path class="cls-7" d="M280.69,123.21l-20.33,41.52a22.13,22.13,0,0,0,.18,19.81l16.55,32.35L326.6,115.76h-34A13.3,13.3,0,0,0,280.69,123.21Z"/><path class="cls-10" d="M310.78,115.76H292.64a13.3,13.3,0,0,0-11.95,7.45l-20.33,41.52a22.13,22.13,0,0,0,.18,19.81L269,201.09Z"/></g></g></svg>