<svg xmlns="http://www.w3.org/2000/svg" xmlns:xlink="http://www.w3.org/1999/xlink" viewBox="0 0 572.11 350.96"><defs><style>.cls-1{isolation:isolate;}.cls-2{fill:#21262b;}.cls-3{font-size:44.56px;fill:#fff;font-family:Montserrat-Bold, Montserrat;font-weight:700;letter-spacing:0.05em;}.cls-4{letter-spacing:0.06em;}.cls-5{font-size:16.17px;fill:#f5f4f9;font-family:Poppins-Regular, Poppins;letter-spacing:0.18em;}.cls-6{mix-blend-mode:color-dodge;opacity:0.22;fill:url(#Dégradé_sans_nom_3);}.cls-10,.cls-7,.cls-8,.cls-9{fill:#23b2a4;}.cls-8{mix-blend-mode:overlay;}.cls-9{opacity:0.42;}.cls-10{opacity:0.32;}</style><radialGradient id="Dégradé_sans_nom_3" cx="175.48" cy="175.48" r="174.89" gradientUnits="userSpaceOnUse"><stop offset="0" stop-color="#23b2a4"/><stop offset="0.53" stop-color="#216563" stop-opacity="0.46"/><stop offset="1" stop-color="#20242b" stop-opacity="0"/></radialGradient></defs><g class="cls-1"><g id="OBJECTS"><rect class="cls-2" x="72.11" y="48.37" width="500" height="255.87"/><text class="cls-3" transform="translate(256.29 176.64)">S<tspan class="cls-4" x="30.83" y="0">TUDENT</tspan></text><text class="cls-5" transform="translate(345.52 202.92)">YNOV</text><rect class="cls-6" width="350.96" height="350.96" rx="175.48"/><path class="cls-7" d="M126.93,90.67H98.88l57.69,112.8-28.85,58.92h34a13.28,13.28,0,0,0,11.94-7.46L194,213.41a22.11,22.11,0,0,0-.17-19.8l-46.18-90.28A23.23,23.23,0,0,0,126.93,90.67Z"/><path class="cls-7" d="M147.61,103.33c23,45,24.79,67.79,9,100.14l-28.85,58.92h34a13.28,13.28,0,0,0,11.94-7.46L194,213.41a22.11,22.11,0,0,0-.17-19.8Z"/><path class="cls-8" d="M147.61,103.33c23,45,24.79,67.79,9,100.14l-28.85,58.92h34a13.28,13.28,0,0,0,11.94-7.46L194,213.41a22.11,22.11,0,0,0-.17-19.8Z"/><path class="cls-9" d="M193.79,193.61l-13-25.48c.89,14.6-2.64,27.9-10.22,43.38l-24.9,50.88h16.05a13.28,13.28,0,0,0,11.94-7.46L194,213.41A22.11,22.11,0,0,0,193.79,193.61Z"/><path class="cls-7" d="M206.17,96l-20.33,41.52a22.17,22.17,0,0,0,.17,19.81l16.55,32.36L252.08,88.57h-34A13.3,13.3,0,0,0,206.17,96Z"/><path class="cls-10" d="M236.26,88.57H218.12a13.3,13.3,0,0,0-12,7.45l-20.33,41.52a22.17,22.17,0,0,0,.17,19.81l8.47,16.55Z"/></g></g></svg>